<svg id="Layer_1" enable-background="new 0 0 256 256" height="512" viewBox="0 0 256 256" width="512" xmlns="http://www.w3.org/2000/svg"><g><g><ellipse cx="128" cy="112.18" fill="#526faa" rx="108.18" ry="108.166" transform="matrix(1 -.002 .002 1 -.205 .235)"/></g><g><path d="m128 4.014c-1.462 0-2.915.038-4.362.095 57.723 2.29 103.818 49.794 103.818 108.072s-46.095 105.782-103.818 108.072c1.448.057 2.9.095 4.362.095 59.746 0 108.18-48.428 108.18-108.167 0-59.74-48.434-108.167-108.18-108.167z" fill="#34518c"/></g><g><path d="m128 220.347c1.462 0 2.914-.038 4.362-.095-57.722-2.29-103.817-49.794-103.817-108.072s46.094-105.781 103.817-108.071c-1.447-.057-2.9-.095-4.362-.095-59.746 0-108.18 48.428-108.18 108.166 0 59.739 48.434 108.167 108.18 108.167z" fill="#708dc8"/></g><g><path d="m29.808 95.094c-.12 0-.241-.011-.363-.033-1.086-.198-1.806-1.241-1.607-2.327.761-4.154 1.875-8.297 3.31-12.312.373-1.041 1.517-1.583 2.557-1.21 1.04.371 1.582 1.516 1.21 2.556-1.363 3.813-2.42 7.746-3.143 11.688-.176.963-1.018 1.638-1.964 1.638z" fill="#690589"/></g><g><path d="m128 222.36c-14.309 0-27.634-11.662-37.519-32.839-9.658-20.692-14.978-48.159-14.978-77.341s5.319-56.649 14.978-77.341c9.886-21.176 23.21-32.839 37.519-32.839s27.633 11.663 37.519 32.84c9.658 20.691 14.978 48.159 14.978 77.341s-5.319 56.648-14.978 77.341c-9.885 21.176-23.21 32.838-37.519 32.838zm0-216.36c-12.667 0-24.704 10.843-33.894 30.531-9.416 20.174-14.602 47.04-14.602 75.649s5.186 55.476 14.602 75.648c9.19 19.688 21.227 30.531 33.894 30.531 12.666 0 24.704-10.843 33.894-30.531 9.416-20.173 14.602-47.039 14.602-75.648s-5.186-55.476-14.602-75.649c-9.19-19.688-21.228-30.531-33.894-30.531z" fill="#690589"/></g><g><path d="m128 222.347c-60.753 0-110.18-49.42-110.18-110.166s49.427-110.167 110.18-110.167 110.18 49.421 110.18 110.167-49.427 110.166-110.18 110.166zm0-216.333c-58.548 0-106.18 47.626-106.18 106.167 0 58.54 47.632 106.166 106.18 106.166s106.18-47.626 106.18-106.166c0-58.541-47.632-106.167-106.18-106.167z" fill="#690589"/></g><g><path d="m235.293 114.181h-214.587c-1.104 0-2-.896-2-2s.896-2 2-2h214.587c1.104 0 2 .896 2 2s-.895 2-2 2z" fill="#690589"/></g><g><path d="m128 71.843c-34.968 0-68.162-7.949-88.794-21.264-.928-.6-1.195-1.837-.596-2.766.6-.927 1.837-1.192 2.765-.596 20.012 12.916 52.395 20.626 86.625 20.626s66.614-7.71 86.625-20.625c.927-.598 2.166-.333 2.765.596s.332 2.166-.596 2.766c-20.631 13.314-53.826 21.263-88.794 21.263z" fill="#690589"/></g><g><path d="m215.708 177.462c-.372 0-.747-.104-1.083-.319-20.012-12.915-52.395-20.625-86.625-20.625s-66.613 7.71-86.625 20.625c-.929.597-2.166.332-2.765-.596-.599-.929-.332-2.166.596-2.766 20.632-13.314 53.826-21.264 88.794-21.264s68.163 7.949 88.794 21.264c.928.6 1.195 1.837.596 2.766-.382.592-1.025.915-1.682.915z" fill="#690589"/></g><g><path d="m128 221.46c-1.105 0-2-.896-2-2v-214.56c0-1.105.895-2 2-2 1.104 0 2 .896 2 2v214.56c0 1.104-.896 2-2 2z" fill="#690589"/></g><g><path d="m244.933 140.595c-.72-2.699-2.828-4.805-5.527-5.527-30.48-8.13-63.247.644-85.511 22.912-22.268 22.265-31.046 55.031-22.913 85.511.722 2.699 2.828 4.805 5.527 5.527 7.517 2.005 15.173 2.982 22.778 2.982 23.225 0 45.96-9.119 62.733-25.894 22.266-22.266 31.044-55.031 22.913-85.511z" fill="#7bac51"/></g><g><path d="m11.066 140.595c.72-2.699 2.828-4.805 5.527-5.527 30.48-8.13 63.247.644 85.511 22.912 22.268 22.265 31.046 55.031 22.913 85.511-.722 2.699-2.828 4.805-5.527 5.527-7.517 2.005-15.173 2.982-22.778 2.982-23.225 0-45.96-9.119-62.733-25.894-22.265-22.266-31.043-55.031-22.913-85.511z" fill="#7bac51"/></g><g><path d="m244.933 140.595c-.72-2.699-2.828-4.805-5.527-5.527-9.154-2.442-18.513-3.348-27.732-2.832 5.935.338 11.876 1.27 17.732 2.832 2.699.722 4.807 2.828 5.527 5.527 8.13 30.48-.648 63.245-22.913 85.511-15.576 15.578-36.295 24.541-57.772 25.743 1.681.096 3.361.151 5.039.151 23.225 0 45.96-9.119 62.733-25.894 22.266-22.266 31.044-55.031 22.913-85.511z" fill="#5d8e33"/></g><g><path d="m159.288 254c-7.869 0-15.706-1.026-23.294-3.05-3.379-.904-6.04-3.564-6.943-6.943-8.317-31.169.662-64.674 23.431-87.441 22.763-22.768 56.27-31.743 87.441-23.43 3.381.904 6.042 3.564 6.943 6.943h.001c8.313 31.168-.665 64.674-23.432 87.44-16.827 16.83-40.208 26.481-64.147 26.481zm57.339-119.915c-22.705 0-44.924 8.913-61.317 25.309-21.764 21.762-30.345 53.788-22.395 83.581.535 2 2.11 3.576 4.11 4.111 7.251 1.934 14.741 2.914 22.262 2.914 22.887 0 45.236-9.225 61.318-25.309 21.761-21.762 30.343-53.788 22.396-83.581-.534-2-2.109-3.574-4.111-4.11-7.347-1.96-14.832-2.915-22.263-2.915z" fill="#690589"/></g><g><path d="m133.005 248.995c-.512 0-1.024-.195-1.414-.586-.781-.781-.781-2.047 0-2.828l69.963-69.963c.78-.781 2.047-.781 2.828 0s.781 2.047 0 2.828l-69.963 69.963c-.39.391-.902.586-1.414.586z" fill="#690589"/></g><g><path d="m180.305 201.696c-.523 0-1.034-.206-1.414-.586-.505-.505-.703-1.241-.518-1.932l7.154-26.7c.285-1.067 1.382-1.704 2.449-1.414 1.067.286 1.7 1.383 1.414 2.449l-6.257 23.354 23.354-6.258c1.065-.289 2.163.347 2.449 1.414.286 1.066-.347 2.163-1.414 2.449l-26.7 7.154c-.171.048-.345.07-.517.07z" fill="#690589"/></g><g><path d="m153.732 228.269c-.523 0-1.034-.206-1.414-.586-.505-.505-.703-1.241-.518-1.932l10.035-37.453c.285-1.067 1.382-1.704 2.449-1.414 1.067.286 1.7 1.382 1.414 2.449l-9.138 34.107 34.106-9.14c1.066-.288 2.163.347 2.449 1.414.286 1.066-.347 2.163-1.414 2.449l-37.451 10.037c-.171.046-.345.069-.518.069z" fill="#690589"/></g><g><path d="m43.98 226.106c-22.266-22.266-31.044-55.03-22.913-85.511.72-2.699 2.828-4.805 5.527-5.527 5.857-1.562 11.798-2.494 17.733-2.832-9.22-.515-18.579.391-27.733 2.832-2.699.722-4.807 2.828-5.527 5.527-8.13 30.48.648 63.245 22.913 85.511 16.773 16.775 39.507 25.894 62.732 25.894 1.678 0 3.358-.056 5.039-.151-21.477-1.202-42.195-10.165-57.771-25.743z" fill="#99ca6f"/></g><g><path d="m96.712 254c-23.94 0-47.32-9.651-64.147-26.48-22.766-22.767-31.745-56.272-23.431-87.441.901-3.379 3.562-6.039 6.942-6.942 31.173-8.318 64.678.66 87.442 23.429 22.769 22.768 31.748 56.273 23.431 87.441-.904 3.38-3.564 6.04-6.942 6.943-7.589 2.024-15.426 3.05-23.295 3.05zm-83.713-112.89c-7.947 29.794.634 61.82 22.395 83.581 16.082 16.084 38.432 25.309 61.318 25.309 7.521 0 15.011-.98 22.263-2.915 2-.534 3.575-2.11 4.11-4.111 7.949-29.792-.632-61.818-22.395-83.58-21.757-21.761-53.785-30.342-83.581-22.393-2.001.535-3.576 2.109-4.11 4.109z" fill="#690589"/></g><g><path d="m122.995 248.995c-.512 0-1.023-.195-1.414-.586l-69.964-69.963c-.781-.781-.781-2.047 0-2.828.78-.781 2.047-.781 2.828 0l69.964 69.963c.781.781.781 2.047 0 2.828-.39.391-.902.586-1.414.586z" fill="#690589"/></g><g><path d="m75.695 201.696c-.173 0-.347-.023-.518-.068l-26.7-7.154c-1.067-.286-1.7-1.383-1.414-2.449.286-1.067 1.382-1.704 2.449-1.414l23.353 6.258-6.257-23.354c-.286-1.066.347-2.163 1.414-2.449 1.065-.289 2.163.347 2.449 1.414l7.154 26.7c.185.69-.012 1.427-.518 1.932-.378.378-.888.584-1.412.584z" fill="#690589"/></g><g><path d="m102.268 228.269c-.173 0-.347-.023-.518-.068l-37.452-10.036c-1.067-.286-1.7-1.383-1.414-2.449.286-1.067 1.381-1.703 2.449-1.414l34.106 9.14-9.138-34.107c-.286-1.067.347-2.163 1.414-2.449 1.065-.289 2.163.347 2.449 1.414l10.035 37.453c.185.69-.012 1.427-.518 1.932-.379.377-.89.584-1.413.584z" fill="#690589"/></g></g></svg>